<svg xmlns="http://www.w3.org/2000/svg" version="1.1" width="428px" height="483px" style="shape-rendering:geometricPrecision; text-rendering:geometricPrecision; image-rendering:optimizeQuality; fill-rule:evenodd; clip-rule:evenodd" xmlns:xlink="http://www.w3.org/1999/xlink">
<g><path style="opacity:0.906" fill="#210a06" d="M 296.5,91.5 C 300.597,95.9843 304.93,100.318 309.5,104.5C 311.087,108.683 313.421,112.35 316.5,115.5C 316.5,118.833 316.5,122.167 316.5,125.5C 311.897,133.031 306.564,140.031 300.5,146.5C 293.982,151.865 289.149,158.532 286,166.5C 283.26,175.72 279.927,184.72 276,193.5C 274.485,199.075 273.485,204.742 273,210.5C 272.485,224.362 272.985,238.196 274.5,252C 273.085,260.142 272.251,268.308 272,276.5C 272.388,277.428 273.055,278.095 274,278.5C 288.482,275.157 293.649,280.824 289.5,295.5C 288.167,300.833 288.167,306.167 289.5,311.5C 290.22,321.481 291.553,331.314 293.5,341C 292.685,342.98 291.352,344.48 289.5,345.5C 287.302,345.12 285.635,345.787 284.5,347.5C 276.236,350.075 271.403,347.075 270,338.5C 267.696,336.932 265.196,335.765 262.5,335C 255.751,334.123 249.084,334.456 242.5,336C 240.323,337.497 238.99,339.497 238.5,342C 240.383,346.317 241.883,350.817 243,355.5C 243.53,359.744 244.03,363.744 244.5,367.5C 230.996,390.504 211.329,405.337 185.5,412C 182.574,412.218 179.74,412.718 177,413.5C 176.586,413.043 176.086,412.709 175.5,412.5C 169.535,416.049 163.535,416.215 157.5,413C 154.328,411.248 151.328,409.248 148.5,407C 156.138,396.222 161.471,384.389 164.5,371.5C 163.817,366.124 161.984,361.124 159,356.5C 156.2,346.434 153.2,336.434 150,326.5C 146.074,308.287 146.907,290.62 152.5,273.5C 143.321,241.983 146.321,211.649 161.5,182.5C 161.167,182.167 160.833,181.833 160.5,181.5C 159.735,182.612 158.735,183.279 157.5,183.5C 156.094,183.973 155.427,184.973 155.5,186.5C 153.132,190.868 149.799,194.202 145.5,196.5C 144.833,196.5 144.5,196.833 144.5,197.5C 143.833,197.5 143.5,197.833 143.5,198.5C 143.5,198.833 143.5,199.167 143.5,199.5C 137.477,211.716 132.31,224.383 128,237.5C 123.504,268.474 115.504,298.474 104,327.5C 95.0856,344.341 88.0856,362.007 83,380.5C 81.1197,381.93 79.6197,381.596 78.5,379.5C 84.0165,361.107 91.1831,343.44 100,326.5C 111.255,297.397 119.255,267.397 124,236.5C 127.939,224.621 132.439,212.955 137.5,201.5C 137.137,200.817 136.804,200.15 136.5,199.5C 141.149,197.315 141.149,195.649 136.5,194.5C 135.585,193.672 134.919,192.672 134.5,191.5C 134.828,185.017 136.661,179.017 140,173.5C 140.708,172.619 141.542,171.953 142.5,171.5C 145.485,170.674 148.151,169.341 150.5,167.5C 152.027,167.573 153.027,166.906 153.5,165.5C 160.857,160.347 168.691,159.347 177,162.5C 178.277,160.253 179.777,158.253 181.5,156.5C 182.906,156.027 183.573,155.027 183.5,153.5C 185.167,150.833 186.833,148.167 188.5,145.5C 192.065,139.489 195.065,133.156 197.5,126.5C 198.82,123.86 200.153,121.193 201.5,118.5C 203.027,118.573 204.027,117.906 204.5,116.5C 205.531,115.751 206.698,115.085 208,114.5C 209.973,109.221 212.473,104.221 215.5,99.5C 215.333,99.1667 215.167,98.8333 215,98.5C 212.176,99.8181 209.676,101.485 207.5,103.5C 206.078,103.709 204.745,104.209 203.5,105C 197.865,109.633 192.532,114.633 187.5,120C 184.833,120.667 182.167,120.667 179.5,120C 178.748,119.329 178.414,118.496 178.5,117.5C 178.833,116.167 179.167,114.833 179.5,113.5C 179.975,111.216 180.975,109.216 182.5,107.5C 184.5,107.5 185.5,106.5 185.5,104.5C 192.643,96.9674 199.81,89.3008 207,81.5C 208.559,79.7834 209.392,77.7834 209.5,75.5C 205.452,75.1604 201.452,74.4938 197.5,73.5C 196.205,70.5606 196.872,68.0606 199.5,66C 203.65,64.4239 207.65,62.5905 211.5,60.5C 211.688,54.3983 211.688,48.3983 211.5,42.5C 220.177,37.7041 229.51,34.8707 239.5,34C 246.518,33.4346 253.518,33.6012 260.5,34.5C 260.565,41.3461 260.731,48.3461 261,55.5C 265.767,57.938 270.267,60.7713 274.5,64C 276,65.5 277.5,67 279,68.5C 284.694,76.3491 290.527,84.0158 296.5,91.5 Z M 248.5,67.5 C 251.388,67.2196 252.888,68.5529 253,71.5C 253.667,70.1667 254.333,70.1667 255,71.5C 256.373,74.4125 257.873,77.2458 259.5,80C 254.219,78.4122 249.719,79.5789 246,83.5C 246.775,78.538 246.608,73.538 245.5,68.5C 246.791,68.7373 247.791,68.404 248.5,67.5 Z"/></g>
<g><path style="opacity:1" fill="#be0c0c" d="M 239.5,37.5 C 245.5,37.5 251.5,37.5 257.5,37.5C 257.133,43.1723 256.633,48.839 256,54.5C 250.655,52.6807 245.155,52.1807 239.5,53C 236.877,55.5587 237.21,57.8921 240.5,60C 243.56,60.8476 246.56,61.8476 249.5,63C 234.29,72.5888 217.956,74.9222 200.5,70C 205.181,67.4077 210.015,65.241 215,63.5C 215.169,56.8085 215.669,50.1419 216.5,43.5C 224.166,41.0014 231.833,39.0014 239.5,37.5 Z"/></g>
<g><path style="opacity:1" fill="#016115" d="M 240.5,56.5 C 245.044,55.344 249.711,55.5107 254.5,57C 260.99,59.4984 266.99,62.8317 272.5,67C 284.342,77.7974 282.675,85.464 267.5,90C 264.057,81.6801 260.223,73.5135 256,65.5C 252.09,60.2962 246.923,57.2962 240.5,56.5 Z"/></g>
<g><path style="opacity:1" fill="#026015" d="M 240.5,70.5 C 242.508,71.6161 243.508,73.4494 243.5,76C 243.032,79.3862 242.032,82.5528 240.5,85.5C 240.608,86.4419 240.941,87.2753 241.5,88C 236.41,88.8449 231.41,90.0116 226.5,91.5C 223.184,86.1706 218.517,82.8373 212.5,81.5C 212.833,79.5 213.167,77.5 213.5,75.5C 221.613,75.7605 229.613,74.9272 237.5,73C 238.942,72.6232 239.942,71.7899 240.5,70.5 Z"/></g>
<g><path style="opacity:1" fill="#c00d0d" d="M 251.5,82.5 C 257.266,82.7928 261.433,85.4595 264,90.5C 266.017,97.8908 268.35,105.224 271,112.5C 272.262,117.787 272.596,123.12 272,128.5C 269.155,137.232 266.322,145.899 263.5,154.5C 265.911,154.863 267.411,153.863 268,151.5C 271.57,142.498 274.07,133.165 275.5,123.5C 274.488,113.324 272.155,103.491 268.5,94C 274.838,91.6509 280.005,87.8176 284,82.5C 290.602,91.1047 297.935,99.1047 306,106.5C 309.7,111.067 312.2,116.234 313.5,122C 311.799,125.234 309.966,128.401 308,131.5C 299.955,140.542 292.289,149.876 285,159.5C 279.95,171.979 275.283,184.646 271,197.5C 269.167,215.146 269.001,232.813 270.5,250.5C 270.29,257.713 269.624,264.879 268.5,272C 268.357,275.535 269.024,278.868 270.5,282C 273.514,282.128 276.514,282.128 279.5,282C 278.403,286.074 277.57,290.24 277,294.5C 276.333,305.833 276.333,317.167 277,328.5C 277.583,333.509 279.083,338.176 281.5,342.5C 278.571,345.454 276.071,345.121 274,341.5C 272.826,334.145 272.66,326.812 273.5,319.5C 272.178,319.33 271.011,319.663 270,320.5C 269.501,324.821 269.334,329.154 269.5,333.5C 261.437,330.874 253.103,330.041 244.5,331C 241.632,331.861 239.298,333.528 237.5,336C 236.552,336.483 235.552,336.649 234.5,336.5C 234.564,340.22 235.064,343.886 236,347.5C 239.411,353.738 240.744,360.404 240,367.5C 233.564,378.602 225.064,387.768 214.5,395C 207.356,399.168 200.023,402.835 192.5,406C 183.683,408.02 174.85,409.853 166,411.5C 162.24,410.858 158.74,409.524 155.5,407.5C 154.417,406.635 154.251,405.635 155,404.5C 158.727,396.045 162.727,387.712 167,379.5C 168.393,374.905 168.726,370.239 168,365.5C 164.806,360.446 162.139,355.112 160,349.5C 157.83,340.49 155.497,331.49 153,322.5C 149.339,301.474 151.672,281.14 160,261.5C 170.759,240.562 178.759,218.562 184,195.5C 190.523,179.098 196.357,162.431 201.5,145.5C 204.623,141.875 207.956,138.375 211.5,135C 214.576,134.654 217.576,133.988 220.5,133C 232.177,132.695 243.843,132.195 255.5,131.5C 258.533,131.669 261.533,132.002 264.5,132.5C 264.5,131.5 264.5,130.5 264.5,129.5C 247.164,128.793 229.83,129.293 212.5,131C 209.063,132.105 206.563,134.272 205,137.5C 207.504,123.141 212.837,109.808 221,97.5C 228.441,94.0099 236.275,91.5099 244.5,90C 247.402,88.0272 249.736,85.5272 251.5,82.5 Z"/></g>
<g><path style="opacity:1" fill="#025f15" d="M 208.5,84.5 C 214.706,84.5997 219.373,87.2664 222.5,92.5C 215.833,94.1121 209.5,96.6121 203.5,100C 197,105.833 190.5,111.667 184,117.5C 183.308,116.975 182.808,116.308 182.5,115.5C 183.333,113.833 184.167,112.167 185,110.5C 193.075,101.99 200.908,93.3237 208.5,84.5 Z"/></g>
<g><path style="opacity:0.004" fill="#c10d0c" d="M 296.5,90.5 C 297.833,91.1667 297.833,91.1667 296.5,90.5 Z"/></g>
<g><path style="opacity:0.004" fill="#006515" d="M 192.5,92.5 C 192.897,91.475 193.563,91.3083 194.5,92C 193.906,92.4643 193.239,92.631 192.5,92.5 Z"/></g>
<g><path style="opacity:0.009" fill="#006515" d="M 207.5,103.5 C 208.167,103.833 208.833,104.167 209.5,104.5C 209.158,105.338 208.492,105.672 207.5,105.5C 207.5,104.833 207.5,104.167 207.5,103.5 Z"/></g>
<g><path style="opacity:0.012" fill="#006515" d="M 209.5,103.5 C 210.833,104.167 210.833,104.167 209.5,103.5 Z"/></g>
<g><path style="opacity:0.004" fill="#c10d0c" d="M 309.5,103.5 C 310.833,104.167 310.833,104.167 309.5,103.5 Z"/></g>
<g><path style="opacity:0.008" fill="#006515" d="M 207.5,105.5 C 206.833,106.167 206.833,106.167 207.5,105.5 Z"/></g>
<g><path style="opacity:0.584" fill="#025a14" d="M 185.5,104.5 C 185.5,106.5 184.5,107.5 182.5,107.5C 183.167,106.167 184.167,105.167 185.5,104.5 Z"/></g>
<g><path style="opacity:0.004" fill="#006515" d="M 206.5,106.5 C 205.833,107.167 205.833,107.167 206.5,106.5 Z"/></g>
<g><path style="opacity:1" fill="#efd9d8" d="M 220.5,110.5 C 221.5,110.5 222.5,110.5 223.5,110.5C 223.5,111.5 223.5,112.5 223.5,113.5C 222.5,113.5 221.5,113.5 220.5,113.5C 220.5,112.5 220.5,111.5 220.5,110.5 Z"/></g>
<g><path style="opacity:0.004" fill="#c10d0c" d="M 316.5,114.5 C 317.833,115.167 317.833,115.167 316.5,114.5 Z"/></g>
<g><path style="opacity:0.078" fill="#095514" d="M 179.5,113.5 C 179.167,114.833 178.833,116.167 178.5,117.5C 177.761,117.631 177.094,117.464 176.5,117C 177.163,115.482 178.163,114.315 179.5,113.5 Z"/></g>
<g><path style="opacity:0.019" fill="#c10d0c" d="M 317.5,116.5 C 318.634,118.966 318.801,121.633 318,124.5C 317.503,121.854 317.336,119.187 317.5,116.5 Z"/></g>
<g><path style="opacity:0.008" fill="#006515" d="M 173.5,117.5 C 174.525,117.897 174.692,118.563 174,119.5C 173.536,118.906 173.369,118.239 173.5,117.5 Z"/></g>
<g><path style="opacity:0.392" fill="#840b0c" d="M 204.5,116.5 C 204.027,117.906 203.027,118.573 201.5,118.5C 201.973,117.094 202.973,116.427 204.5,116.5 Z"/></g>
<g><path style="opacity:1" fill="#efd8d8" d="M 215.5,118.5 C 216.5,118.5 217.5,118.5 218.5,118.5C 218.5,119.5 218.5,120.5 218.5,121.5C 217.5,121.5 216.5,121.5 215.5,121.5C 215.5,120.5 215.5,119.5 215.5,118.5 Z"/></g>
<g><path style="opacity:1" fill="#be0c0c" d="M 205.5,119.5 C 206.097,119.735 206.43,120.235 206.5,121C 201.84,132.978 198.006,145.144 195,157.5C 185.823,178.032 178.823,199.365 174,221.5C 167.468,236.764 161.135,252.097 155,267.5C 147.005,235.457 151.672,205.457 169,177.5C 176.047,169.455 182.713,161.122 189,152.5C 194.039,141.181 199.539,130.181 205.5,119.5 Z"/></g>
<g><path style="opacity:1" fill="#ebbebd" d="M 211.5,124.5 C 214.861,125.203 215.194,126.537 212.5,128.5C 211.571,127.311 211.238,125.978 211.5,124.5 Z"/></g>
<g><path style="opacity:0.004" fill="#c10d0c" d="M 316.5,125.5 C 317.833,126.167 317.833,126.167 316.5,125.5 Z"/></g>
<g><path style="opacity:0.046" fill="#a30c0d" d="M 197.5,126.5 C 195.065,133.156 192.065,139.489 188.5,145.5C 190.188,138.46 193.188,132.127 197.5,126.5 Z"/></g>
<g><path style="opacity:0.004" fill="#c10d0c" d="M 301.5,145.5 C 302.833,146.167 302.833,146.167 301.5,145.5 Z"/></g>
<g><path style="opacity:0.004" fill="#c10d0c" d="M 300.5,146.5 C 300.833,146.5 301.167,146.5 301.5,146.5C 301.315,147.17 300.981,147.17 300.5,146.5 Z"/></g>
<g><path style="opacity:0.396" fill="#8d0b0c" d="M 183.5,153.5 C 183.573,155.027 182.906,156.027 181.5,156.5C 181.427,154.973 182.094,153.973 183.5,153.5 Z"/></g>
<g><path style="opacity:1" fill="#016215" d="M 165.5,163.5 C 168.839,163.89 172.173,164.39 175.5,165C 171.618,169.214 168.118,173.714 165,178.5C 162.599,177.398 160.099,177.231 157.5,178C 153.833,182.333 150.167,186.667 146.5,191C 144.323,192.202 141.989,192.702 139.5,192.5C 138.775,186.725 139.941,181.392 143,176.5C 150.636,172.249 158.136,167.915 165.5,163.5 Z"/></g>
<g><path style="opacity:0.069" fill="#006515" d="M 153.5,165.5 C 153.027,166.906 152.027,167.573 150.5,167.5C 150.821,165.952 151.821,165.285 153.5,165.5 Z"/></g>
<g><path style="opacity:0.008" fill="#006515" d="M 144.5,166.5 C 145.833,167.167 145.833,167.167 144.5,166.5 Z"/></g>
<g><path style="opacity:0.073" fill="#055d15" d="M 150.5,167.5 C 148.151,169.341 145.485,170.674 142.5,171.5C 142.833,170.833 143.167,170.167 143.5,169.5C 145.679,169.16 147.512,168.16 149,166.5C 149.383,167.056 149.883,167.389 150.5,167.5 Z"/></g>
<g><path style="opacity:0.01" fill="#006515" d="M 143.5,169.5 C 142.475,169.103 142.308,168.437 143,167.5C 143.464,168.094 143.631,168.761 143.5,169.5 Z"/></g>
<g><path style="opacity:0.004" fill="#006515" d="M 140.5,168.5 C 141.833,169.167 141.833,169.167 140.5,168.5 Z"/></g>
<g><path style="opacity:0.021" fill="#006515" d="M 157.5,183.5 C 157.573,185.027 156.906,186.027 155.5,186.5C 155.427,184.973 156.094,183.973 157.5,183.5 Z"/></g>
<g><path style="opacity:0.007" fill="#006515" d="M 145.5,196.5 C 146.718,198.332 146.051,199.332 143.5,199.5C 143.5,199.167 143.5,198.833 143.5,198.5C 144.167,198.5 144.5,198.167 144.5,197.5C 145.167,197.5 145.5,197.167 145.5,196.5 Z"/></g>
<g><path style="opacity:0.012" fill="#006515" d="M 136.5,199.5 C 135.833,198.167 135.833,198.167 136.5,199.5 Z"/></g>
<g><path style="opacity:1" fill="#e7ada2" d="M 218.5,237.5 C 217.532,235.393 217.198,233.059 217.5,230.5C 218.552,230.351 219.552,230.517 220.5,231C 218.75,232.754 218.083,234.921 218.5,237.5 Z"/></g>
<g><path style="opacity:1" fill="#da7268" d="M 179.5,221.5 C 181.821,221.658 183.654,222.658 185,224.5C 185.308,223.692 185.808,223.025 186.5,222.5C 187.318,225.107 187.818,227.774 188,230.5C 188.49,229.207 188.657,227.873 188.5,226.5C 192.375,225.874 194.209,227.541 194,231.5C 195.59,226.712 196.757,226.379 197.5,230.5C 198.842,228.995 200.508,228.328 202.5,228.5C 202.5,230.167 202.5,231.833 202.5,233.5C 203.5,233.5 204.5,233.5 205.5,233.5C 205.094,231.891 205.094,230.557 205.5,229.5C 206.641,231.421 206.808,233.421 206,235.5C 204.644,234.62 203.144,234.286 201.5,234.5C 201.93,229.504 200.597,228.67 197.5,232C 200.917,233.24 201.083,234.407 198,235.5C 195.704,235.091 193.87,233.924 192.5,232C 190.5,231.667 188.5,231.333 186.5,231C 185.751,229.266 185.251,227.433 185,225.5C 183.491,226.09 181.991,226.756 180.5,227.5C 181.506,228.396 181.506,229.062 180.5,229.5C 179.52,226.914 179.187,224.247 179.5,221.5 Z"/></g>
<g><path style="opacity:1" fill="#db776e" d="M 208.5,230.5 C 210.346,230.222 211.68,230.889 212.5,232.5C 211.066,233.23 209.9,234.23 209,235.5C 207.212,233.977 207.045,232.31 208.5,230.5 Z"/></g>
<g><path style="opacity:1" fill="#de857b" d="M 218.5,237.5 C 219.833,237.5 221.167,237.5 222.5,237.5C 222.34,235.801 222.506,234.134 223,232.5C 224.667,234.833 226.333,237.167 228,239.5C 229.284,238.428 229.617,237.095 229,235.5C 231.153,237.702 230.819,239.369 228,240.5C 226.416,240.012 225.249,239.012 224.5,237.5C 222.357,238.754 220.357,238.754 218.5,237.5 Z"/></g>
<g><path style="opacity:1" fill="#df7e71" d="M 232.5,235.5 C 234.017,235.511 235.184,236.177 236,237.5C 236.414,237.043 236.914,236.709 237.5,236.5C 238.641,238.421 238.808,240.421 238,242.5C 237.51,241.207 237.343,239.873 237.5,238.5C 236.07,238.579 234.736,238.246 233.5,237.5C 232.749,238.376 232.249,239.376 232,240.5C 231.36,238.735 231.527,237.068 232.5,235.5 Z"/></g>
<g><path style="opacity:0.013" fill="#c10d0c" d="M 140.5,240.5 C 141.844,242.185 141.677,243.852 140,245.5C 140.019,243.893 140.185,242.226 140.5,240.5 Z"/></g>
<g><path style="opacity:1" fill="#e8ab9f" d="M 191.5,236.5 C 192.434,237.568 192.768,238.901 192.5,240.5C 194.124,240.64 195.29,239.973 196,238.5C 196.483,239.448 196.649,240.448 196.5,241.5C 194.549,241.227 193.049,241.893 192,243.5C 191.503,241.19 191.337,238.857 191.5,236.5 Z"/></g>
<g><path style="opacity:1" fill="#dc786f" d="M 248.5,239.5 C 251.697,240.112 253.031,242.112 252.5,245.5C 251.022,245.762 249.689,245.429 248.5,244.5C 249.262,244.089 250.262,243.923 251.5,244C 249.561,243.092 248.561,241.592 248.5,239.5 Z"/></g>
<g><path style="opacity:1" fill="#dc7d75" d="M 197.5,240.5 C 198.873,240.343 200.207,240.51 201.5,241C 200.141,242.204 199.141,243.704 198.5,245.5C 197.548,243.955 197.215,242.288 197.5,240.5 Z"/></g>
<g><path style="opacity:1" fill="#da766f" d="M 205.5,242.5 C 203.348,243.077 203.015,244.244 204.5,246C 201.909,246.301 201.075,245.134 202,242.5C 203.292,241.209 204.458,241.209 205.5,242.5 Z"/></g>
<g><path style="opacity:1" fill="#e39285" d="M 241.5,238.5 C 242.434,239.568 242.768,240.901 242.5,242.5C 243.5,242.5 244.5,242.5 245.5,242.5C 245.351,241.448 245.517,240.448 246,239.5C 246.667,241.167 246.667,242.833 246,244.5C 244.883,244.335 243.716,244.002 242.5,243.5C 241.548,241.955 241.215,240.288 241.5,238.5 Z"/></g>
<g><path style="opacity:1" fill="#dd7f77" d="M 205.5,242.5 C 207.106,243.359 208.773,243.526 210.5,243C 209.62,244.356 209.286,245.856 209.5,247.5C 208.542,247.047 207.708,246.381 207,245.5C 206.667,245.833 206.333,246.167 206,246.5C 205.51,245.207 205.343,243.873 205.5,242.5 Z"/></g>
<g><path style="opacity:1" fill="#da756c" d="M 209.5,247.5 C 211.062,245.628 212.062,243.295 212.5,240.5C 214.973,242.645 216.64,245.311 217.5,248.5C 218.167,247.167 218.833,245.833 219.5,244.5C 221.744,250.001 220.411,251.501 215.5,249C 214.773,247.601 214.273,246.101 214,244.5C 213.51,245.793 213.343,247.127 213.5,248.5C 211.901,248.768 210.568,248.434 209.5,247.5 Z"/></g>
<g><path style="opacity:1" fill="#da7066" d="M 254.5,240.5 C 256.433,242.058 258.433,242.558 260.5,242C 261.191,243.067 261.691,244.234 262,245.5C 262.249,244.376 262.749,243.376 263.5,242.5C 264.108,244.684 263.441,246.684 261.5,248.5C 260.635,249.583 259.635,249.749 258.5,249C 261.081,247.159 261.081,245.326 258.5,243.5C 257.494,243.938 257.494,244.604 258.5,245.5C 257.277,246.614 255.944,246.781 254.5,246C 255.167,245.667 255.833,245.333 256.5,245C 253.985,244.061 253.318,242.561 254.5,240.5 Z"/></g>
<g><path style="opacity:1" fill="#de847b" d="M 222.5,245.5 C 225.166,245.066 226.333,246.066 226,248.5C 224.203,245.904 222.869,246.237 222,249.5C 221.421,248.072 221.588,246.738 222.5,245.5 Z"/></g>
<g><path style="opacity:1" fill="#d9736c" d="M 228.5,245.5 C 229.267,246.172 229.934,247.005 230.5,248C 229.783,249.652 229.45,251.152 229.5,252.5C 227.239,250.516 226.906,248.183 228.5,245.5 Z"/></g>
<g><path style="opacity:1" fill="#d76760" d="M 231.5,246.5 C 231.56,245.957 231.893,245.624 232.5,245.5C 233.833,248.167 233.833,250.833 232.5,253.5C 231.735,250.936 231.402,248.603 231.5,246.5 Z"/></g>
<g><path style="opacity:1" fill="#d65d4c" d="M 235.5,248.5 C 239.013,249.028 240.013,250.862 238.5,254C 234.537,254.118 233.537,252.284 235.5,248.5 Z"/></g>
<g><path style="opacity:1" fill="#dd837b" d="M 241.5,250.5 C 246.241,250.161 247.574,252.161 245.5,256.5C 244.833,254.833 244.167,253.167 243.5,251.5C 242.833,252.833 242.167,254.167 241.5,255.5C 241.167,255.333 240.833,255.167 240.5,255C 241.38,253.644 241.714,252.144 241.5,250.5 Z"/></g>
<g><path style="opacity:1" fill="#d86b5f" d="M 248.5,251.5 C 250.745,251.541 251.412,252.375 250.5,254C 251.357,254.689 252.023,255.522 252.5,256.5C 250.994,257.747 249.494,257.747 248,256.5C 248.309,254.749 248.475,253.082 248.5,251.5 Z"/></g>
<g><path style="opacity:1" fill="#290b06" d="M 169.5,255.5 C 170.995,255.415 171.995,256.081 172.5,257.5C 171.372,264.116 171.205,270.782 172,277.5C 172.718,278.451 173.551,278.617 174.5,278C 176.5,275.333 178.5,272.667 180.5,270C 182.055,268.711 183.721,268.044 185.5,268C 186.261,274.791 187.095,281.625 188,288.5C 195.757,304.93 207.923,316.43 224.5,323C 224.167,323.5 223.833,324 223.5,324.5C 212.287,321.642 203.121,315.642 196,306.5C 190.783,300.947 186.783,294.614 184,287.5C 183.667,282.5 183.333,277.5 183,272.5C 179.803,276.358 176.637,280.191 173.5,284C 172.552,284.483 171.552,284.649 170.5,284.5C 170.496,282.158 169.663,280.158 168,278.5C 166.982,270.662 167.482,262.995 169.5,255.5 Z"/></g>
<g><path style="opacity:0.004" fill="#c10d0c" d="M 144.5,275.5 C 144.351,274.448 144.517,273.448 145,272.5C 145.74,273.749 145.573,274.749 144.5,275.5 Z"/></g>
<g><path style="opacity:0.004" fill="#c10d0c" d="M 144.5,275.5 C 143.833,276.167 143.833,276.167 144.5,275.5 Z"/></g>
<g><path style="opacity:1" fill="#b60c0c" d="M 282.5,281.5 C 283.822,281.33 284.989,281.663 286,282.5C 284.492,301.494 285.659,320.327 289.5,339C 289.739,341.259 288.739,342.426 286.5,342.5C 284.295,341.115 282.795,339.115 282,336.5C 278.605,318.131 278.772,299.797 282.5,281.5 Z"/></g>
<g><path style="opacity:0.004" fill="#c10d0c" d="M 141.5,291.5 C 142.833,292.167 142.833,292.167 141.5,291.5 Z"/></g>
<g><path style="opacity:0.004" fill="#c10d0c" d="M 295.5,294.5 C 296.525,294.897 296.692,295.563 296,296.5C 295.536,295.906 295.369,295.239 295.5,294.5 Z"/></g>
<g><path style="opacity:0.214" fill="#610809" d="M 289.5,295.5 C 290.364,300.734 290.364,306.067 289.5,311.5C 288.167,306.167 288.167,300.833 289.5,295.5 Z"/></g>
<g><path style="opacity:0.005" fill="#fe0000" d="M 141.5,306.5 C 142.613,307.946 142.78,309.613 142,311.5C 141.506,309.866 141.34,308.199 141.5,306.5 Z"/></g>
<g><path style="opacity:0.033" fill="#a30d0d" d="M 289.5,345.5 C 288.365,347.213 286.698,347.88 284.5,347.5C 285.635,345.787 287.302,345.12 289.5,345.5 Z"/></g>
<g><path style="opacity:1" fill="#260a06" d="M 217.5,358.5 C 219.686,358.511 220.519,359.511 220,361.5C 213.005,373.495 203.172,382.328 190.5,388C 186.246,389.265 181.912,390.098 177.5,390.5C 177.5,389.5 177.5,388.5 177.5,387.5C 195.443,384.195 208.776,374.528 217.5,358.5 Z"/></g>
<g><path style="opacity:0.004" fill="#c10d0c" d="M 254.5,367.5 C 255.773,368.077 255.773,368.743 254.5,369.5C 253.537,369.03 253.537,368.363 254.5,367.5 Z"/></g>
<g><path style="opacity:0.004" fill="#c10d0c" d="M 253.5,370.5 C 254.833,371.167 254.833,371.167 253.5,370.5 Z"/></g>
</svg>